<svg xmlns="http://www.w3.org/2000/svg" xmlns:xlink="http://www.w3.org/1999/xlink" width="750" zoomAndPan="magnify" viewBox="0 0 562.5 767.999994" height="1024" preserveAspectRatio="xMidYMid meet" version="1.2"><defs><clipPath id="dc97d8ff67"><path d="M 0 0.339844 L 562 0.339844 L 562 767.65625 L 0 767.65625 Z M 0 0.339844 "/></clipPath><clipPath id="808fc20b01"><path d="M 245 5 L 352 5 L 352 208 L 245 208 Z M 245 5 "/></clipPath><clipPath id="1ceb413786"><path d="M -86.492188 126.71875 L 518.070312 -59.832031 L 730.910156 629.941406 L 126.347656 816.488281 Z M -86.492188 126.71875 "/></clipPath><clipPath id="f6101d2e32"><path d="M -86.492188 126.71875 L 518.070312 -59.832031 L 730.910156 629.941406 L 126.347656 816.488281 Z M -86.492188 126.71875 "/></clipPath><clipPath id="bdbfef7960"><path d="M 182 109 L 295 109 L 295 240 L 182 240 Z M 182 109 "/></clipPath><clipPath id="a83302cb27"><path d="M -86.492188 126.71875 L 518.070312 -59.832031 L 730.910156 629.941406 L 126.347656 816.488281 Z M -86.492188 126.71875 "/></clipPath><clipPath id="323d60030b"><path d="M -86.492188 126.71875 L 518.070312 -59.832031 L 730.910156 629.941406 L 126.347656 816.488281 Z M -86.492188 126.71875 "/></clipPath><clipPath id="579cebbc8d"><path d="M 81 253 L 215 253 L 215 342 L 81 342 Z M 81 253 "/></clipPath><clipPath id="c2644c5678"><path d="M -86.492188 126.71875 L 518.070312 -59.832031 L 730.910156 629.941406 L 126.347656 816.488281 Z M -86.492188 126.71875 "/></clipPath><clipPath id="777ca38a11"><path d="M -86.492188 126.71875 L 518.070312 -59.832031 L 730.910156 629.941406 L 126.347656 816.488281 Z M -86.492188 126.71875 "/></clipPath><clipPath id="16df5ed128"><path d="M 79 424 L 212 424 L 212 510 L 79 510 Z M 79 424 "/></clipPath><clipPath id="2fdd135a4a"><path d="M -86.492188 126.71875 L 518.070312 -59.832031 L 730.910156 629.941406 L 126.347656 816.488281 Z M -86.492188 126.71875 "/></clipPath><clipPath id="8387525bd3"><path d="M -86.492188 126.71875 L 518.070312 -59.832031 L 730.910156 629.941406 L 126.347656 816.488281 Z M -86.492188 126.71875 "/></clipPath><clipPath id="b6f9ab45b8"><path d="M 175 529 L 290 529 L 290 658 L 175 658 Z M 175 529 "/></clipPath><clipPath id="ed970a7dcd"><path d="M -86.492188 126.71875 L 518.070312 -59.832031 L 730.910156 629.941406 L 126.347656 816.488281 Z M -86.492188 126.71875 "/></clipPath><clipPath id="67d0c800a7"><path d="M -86.492188 126.71875 L 518.070312 -59.832031 L 730.910156 629.941406 L 126.347656 816.488281 Z M -86.492188 126.71875 "/></clipPath><clipPath id="075c320c4d"><path d="M 363 70 L 428 70 L 428 194 L 363 194 Z M 363 70 "/></clipPath><clipPath id="9109684f48"><path d="M -86.492188 126.71875 L 518.070312 -59.832031 L 730.910156 629.941406 L 126.347656 816.488281 Z M -86.492188 126.71875 "/></clipPath><clipPath id="2c964afb98"><path d="M -86.492188 126.71875 L 518.070312 -59.832031 L 730.910156 629.941406 L 126.347656 816.488281 Z M -86.492188 126.71875 "/></clipPath><clipPath id="77b7d1e9a5"><path d="M 60 127 L 248 127 L 248 286 L 60 286 Z M 60 127 "/></clipPath><clipPath id="c5cf2b4540"><path d="M -86.492188 126.71875 L 518.070312 -59.832031 L 730.910156 629.941406 L 126.347656 816.488281 Z M -86.492188 126.71875 "/></clipPath><clipPath id="1c5fcbd5a4"><path d="M -86.492188 126.71875 L 518.070312 -59.832031 L 730.910156 629.941406 L 126.347656 816.488281 Z M -86.492188 126.71875 "/></clipPath><clipPath id="23817023e2"><path d="M 1 348 L 198 348 L 198 413 L 1 413 Z M 1 348 "/></clipPath><clipPath id="748ac7c4b1"><path d="M -86.492188 126.71875 L 518.070312 -59.832031 L 730.910156 629.941406 L 126.347656 816.488281 Z M -86.492188 126.71875 "/></clipPath><clipPath id="1894044bef"><path d="M -86.492188 126.71875 L 518.070312 -59.832031 L 730.910156 629.941406 L 126.347656 816.488281 Z M -86.492188 126.71875 "/></clipPath><clipPath id="4b2e1f38a5"><path d="M 54 481 L 244 481 L 244 636 L 54 636 Z M 54 481 "/></clipPath><clipPath id="82577a1074"><path d="M -86.492188 126.71875 L 518.070312 -59.832031 L 730.910156 629.941406 L 126.347656 816.488281 Z M -86.492188 126.71875 "/></clipPath><clipPath id="cd04642b77"><path d="M -86.492188 126.71875 L 518.070312 -59.832031 L 730.910156 629.941406 L 126.347656 816.488281 Z M -86.492188 126.71875 "/></clipPath><clipPath id="0ebcc8a178"><path d="M 234 562 L 347 562 L 347 764 L 234 764 Z M 234 562 "/></clipPath><clipPath id="97f2056d9e"><path d="M -86.492188 126.71875 L 518.070312 -59.832031 L 730.910156 629.941406 L 126.347656 816.488281 Z M -86.492188 126.71875 "/></clipPath><clipPath id="00b0c516f2"><path d="M -86.492188 126.71875 L 518.070312 -59.832031 L 730.910156 629.941406 L 126.347656 816.488281 Z M -86.492188 126.71875 "/></clipPath><clipPath id="443fb45f20"><path d="M 435 8 L 547 8 L 547 210 L 435 210 Z M 435 8 "/></clipPath><clipPath id="0486790a6b"><path d="M -86.492188 126.71875 L 518.070312 -59.832031 L 730.910156 629.941406 L 126.347656 816.488281 Z M -86.492188 126.71875 "/></clipPath><clipPath id="f10f4fc543"><path d="M -86.492188 126.71875 L 518.070312 -59.832031 L 730.910156 629.941406 L 126.347656 816.488281 Z M -86.492188 126.71875 "/></clipPath><clipPath id="40ae1c6aaf"><path d="M 222.960938 218.8125 L 561 218.8125 L 561 557 L 222.960938 557 Z M 222.960938 218.8125 "/></clipPath><clipPath id="4c06a03583"><rect x="0" width="562" y="0" height="768"/></clipPath></defs><g id="d08f0091c5"><g clip-rule="nonzero" clip-path="url(#dc97d8ff67)"><g transform="matrix(1,0,0,1,0,-0.000000000000118905)"><g clip-path="url(#4c06a03583)"><g clip-rule="nonzero" clip-path="url(#808fc20b01)"><g clip-rule="nonzero" clip-path="url(#1ceb413786)"><g clip-rule="nonzero" clip-path="url(#f6101d2e32)"><path style=" stroke:none;fill-rule:nonzero;fill:#000000;fill-opacity:1;" d="M 351.730469 196 L 315.738281 207.105469 L 245.421875 24.300781 L 306.8125 5.355469 Z M 351.730469 196 "/></g></g></g><g clip-rule="nonzero" clip-path="url(#bdbfef7960)"><g clip-rule="nonzero" clip-path="url(#a83302cb27)"><g clip-rule="nonzero" clip-path="url(#323d60030b)"><path style=" stroke:none;fill-rule:nonzero;fill:#000000;fill-opacity:1;" d="M 294.941406 217.320312 L 264.144531 239.007812 L 182.746094 146.476562 L 235.28125 109.484375 Z M 294.941406 217.320312 "/></g></g></g><g clip-rule="nonzero" clip-path="url(#579cebbc8d)"><g clip-rule="nonzero" clip-path="url(#c2644c5678)"><g clip-rule="nonzero" clip-path="url(#777ca38a11)"><path style=" stroke:none;fill-rule:nonzero;fill:#000000;fill-opacity:1;" d="M 214.105469 305.773438 L 201.945312 341.410156 L 81.703125 314.402344 L 102.460938 253.597656 Z M 214.105469 305.773438 "/></g></g></g><g clip-rule="nonzero" clip-path="url(#16df5ed128)"><g clip-rule="nonzero" clip-path="url(#2fdd135a4a)"><g clip-rule="nonzero" clip-path="url(#8387525bd3)"><path style=" stroke:none;fill-rule:nonzero;fill:#000000;fill-opacity:1;" d="M 200.703125 424.839844 L 211.808594 460.824219 L 98.664062 509.644531 L 79.71875 448.253906 Z M 200.703125 424.839844 "/></g></g></g><g clip-rule="nonzero" clip-path="url(#b6f9ab45b8)"><g clip-rule="nonzero" clip-path="url(#ed970a7dcd)"><g clip-rule="nonzero" clip-path="url(#67d0c800a7)"><path style=" stroke:none;fill-rule:nonzero;fill:#000000;fill-opacity:1;" d="M 259.839844 529.042969 L 289.976562 551.628906 L 227.136719 657.644531 L 175.726562 619.105469 Z M 259.839844 529.042969 "/></g></g></g><g clip-rule="nonzero" clip-path="url(#075c320c4d)"><g clip-rule="nonzero" clip-path="url(#9109684f48)"><g clip-rule="nonzero" clip-path="url(#2c964afb98)"><path style=" stroke:none;fill-rule:nonzero;fill:#000000;fill-opacity:1;" d="M 412.335938 193.28125 L 374.667969 192.722656 L 363.195312 70.015625 L 427.441406 70.972656 Z M 412.335938 193.28125 "/></g></g></g><g clip-rule="nonzero" clip-path="url(#77b7d1e9a5)"><g clip-rule="nonzero" clip-path="url(#c5cf2b4540)"><g clip-rule="nonzero" clip-path="url(#1c5fcbd5a4)"><path style=" stroke:none;fill-rule:nonzero;fill:#000000;fill-opacity:1;" d="M 247.519531 255.140625 L 224.933594 285.277344 L 60.59375 178.730469 L 99.121094 127.300781 Z M 247.519531 255.140625 "/></g></g></g><g clip-rule="nonzero" clip-path="url(#23817023e2)"><g clip-rule="nonzero" clip-path="url(#748ac7c4b1)"><g clip-rule="nonzero" clip-path="url(#1894044bef)"><path style=" stroke:none;fill-rule:nonzero;fill:#000000;fill-opacity:1;" d="M 197.976562 364.238281 L 197.410156 401.898438 L 1.824219 412.289062 L 2.785156 348.042969 Z M 197.976562 364.238281 "/></g></g></g><g clip-rule="nonzero" clip-path="url(#4b2e1f38a5)"><g clip-rule="nonzero" clip-path="url(#82577a1074)"><g clip-rule="nonzero" clip-path="url(#cd04642b77)"><path style=" stroke:none;fill-rule:nonzero;fill:#000000;fill-opacity:1;" d="M 222.011719 481.625 L 243.695312 512.410156 L 91.570312 635.785156 L 54.578125 583.25 Z M 222.011719 481.625 "/></g></g></g><g clip-rule="nonzero" clip-path="url(#0ebcc8a178)"><g clip-rule="nonzero" clip-path="url(#97f2056d9e)"><g clip-rule="nonzero" clip-path="url(#00b0c516f2)"><path style=" stroke:none;fill-rule:nonzero;fill:#000000;fill-opacity:1;" d="M 310.472656 562.449219 L 346.113281 574.628906 L 295.546875 763.839844 L 234.738281 743.097656 Z M 310.472656 562.449219 "/></g></g></g><g clip-rule="nonzero" clip-path="url(#443fb45f20)"><g clip-rule="nonzero" clip-path="url(#0486790a6b)"><g clip-rule="nonzero" clip-path="url(#f10f4fc543)"><path style=" stroke:none;fill-rule:nonzero;fill:#000000;fill-opacity:1;" d="M 470.800781 209.410156 L 435.160156 197.242188 L 485.71875 8.007812 L 546.515625 28.769531 Z M 470.800781 209.410156 "/></g></g></g><path style=" stroke:none;fill-rule:nonzero;fill:#000000;fill-opacity:1;" d="M 330.925781 362.089844 L 359.320312 411.363281 L 456.90625 313.773438 C 461.082031 309.601562 466.6875 307.453125 472.175781 307.453125 C 477.78125 307.453125 483.269531 309.601562 487.445312 313.773438 L 487.566406 313.894531 C 491.742188 318.070312 493.769531 323.558594 493.769531 329.046875 C 493.769531 334.535156 491.621094 340.140625 487.445312 344.316406 L 369.816406 461.945312 C 369.699219 462.0625 369.578125 462.183594 369.578125 462.183594 C 365.402344 466.238281 360.035156 468.148438 354.546875 468.148438 C 347.269531 468.148438 340.707031 464.570312 336.652344 458.605469 C 335.9375 457.53125 335.339844 456.335938 334.863281 455.144531 L 293.226562 383.207031 C 288.214844 374.378906 289.765625 366.027344 294.539062 359.945312 C 296.449219 357.558594 298.714844 355.648438 301.21875 354.21875 C 303.84375 352.785156 306.707031 351.710938 309.570312 351.355469 C 317.324219 350.160156 325.675781 352.90625 330.6875 361.613281 C 330.6875 361.734375 330.804688 361.972656 330.925781 362.089844 Z M 330.925781 362.089844 "/><g clip-rule="nonzero" clip-path="url(#40ae1c6aaf)"><path style=" stroke:none;fill-rule:evenodd;fill:#000000;fill-opacity:1;" d="M 392.007812 218.8125 C 485.296875 218.8125 560.933594 294.449219 560.933594 387.859375 C 560.933594 481.152344 485.296875 556.789062 392.007812 556.789062 C 298.59375 556.789062 222.960938 481.152344 222.960938 387.859375 C 222.960938 294.449219 298.59375 218.8125 392.007812 218.8125 Z M 392.007812 233.128906 C 477.425781 233.128906 546.617188 302.441406 546.617188 387.859375 C 546.617188 473.277344 477.425781 542.472656 392.007812 542.472656 C 306.589844 542.472656 237.277344 473.277344 237.277344 387.859375 C 237.277344 302.441406 306.589844 233.128906 392.007812 233.128906 Z M 392.007812 233.128906 "/></g><path style=" stroke:none;fill-rule:evenodd;fill:#000000;fill-opacity:1;" d="M 392.007812 228.355469 C 480.050781 228.355469 551.390625 299.699219 551.390625 387.859375 C 551.390625 475.902344 480.050781 547.242188 392.007812 547.242188 C 303.84375 547.242188 232.503906 475.902344 232.503906 387.859375 C 232.503906 299.699219 303.84375 228.355469 392.007812 228.355469 Z M 392.007812 233.128906 C 477.425781 233.128906 546.617188 302.441406 546.617188 387.859375 C 546.617188 473.277344 477.425781 542.472656 392.007812 542.472656 C 306.589844 542.472656 237.277344 473.277344 237.277344 387.859375 C 237.277344 302.441406 306.589844 233.128906 392.007812 233.128906 Z M 392.007812 233.128906 "/></g></g></g></g></svg>